<?xml version="1.0" encoding="UTF-8" standalone="no"?>
<svg
   xmlns:dc="http://purl.org/dc/elements/1.1/"
   xmlns:cc="http://creativecommons.org/ns#"
   xmlns:rdf="http://www.w3.org/1999/02/22-rdf-syntax-ns#"
   xmlns:svg="http://www.w3.org/2000/svg"
   xmlns="http://www.w3.org/2000/svg"
   height="64"
   width="63.999996"
   id="svg8"
   xml:space="preserve"
   enable-background="new 0 0 1000 1000"
   viewBox="0 0 63.999996 64"
   y="0px"
   x="0px"
   version="1.1"><defs
   id="defs12" />
<metadata
   id="metadata2"> Svg Vector Icons : http://www.onlinewebfonts.com/icon <rdf:RDF><cc:Work
     rdf:about=""><dc:format>image/svg+xml</dc:format><dc:type
       rdf:resource="http://purl.org/dc/dcmitype/StillImage" /><dc:title></dc:title></cc:Work></rdf:RDF></metadata>
<g
   transform="matrix(0.06819575,0,0,0.0652928,-2.098358,-0.652928)"
   id="g6"><path
     id="path4"
     d="m 462.1,10 c 25.5,0 51,0 76.6,0 24.9,4.8 49.8,10 74.8,14.1 10,1.6 13.7,6.3 15,15.9 3.7,27.1 7.3,54.3 12.8,81.1 1.4,7 8.2,14.7 14.6,18.7 27.5,17.1 56.2,32.2 83.4,49.8 9.3,6 16.4,6.6 25.9,2.8 24.8,-10 50,-18.9 74.8,-28.9 9,-3.7 14.5,-2.2 21.2,5.1 50.5,55.6 86.9,119.2 107.6,191.4 1.7,5.9 -1.7,16.2 -6.4,20.3 -20.5,18.1 -42.9,34.2 -63.5,52.2 -5.1,4.4 -8.3,13.4 -8.5,20.4 -1.2,33.6 -1.4,67.3 -1,101 0.1,6.4 3.2,14.8 7.8,18.9 21,18.5 43.5,35.4 64.5,54 4.2,3.7 7.1,13.2 5.5,18.6 -21.4,72.1 -58.5,135.2 -109.7,190.3 -7.2,7.8 -13,9.5 -22.9,5.3 -24.5,-10.6 -49.4,-20.6 -74.6,-29.2 -6.9,-2.3 -17,-0.9 -23.6,2.6 -28.6,15.1 -56,32.6 -84.8,47.3 -10.6,5.4 -15.1,11.7 -16.7,22.6 -3.7,25.2 -8.8,50.2 -11.8,75.5 -1.5,12.6 -7.3,17.3 -19,19.1 -20.6,3.1 -41.1,7.5 -61.6,11.3 -28.1,0 -56.1,0 -84.2,0 -21.8,-4.1 -43.6,-8.4 -65.5,-12.1 -12.5,-2.1 -19.7,-7 -20.9,-21.5 -2,-24.7 -5.8,-49.4 -10.7,-73.7 -1.6,-7.9 -7.6,-17.2 -14.4,-21.4 -28.4,-18 -57.6,-34.7 -87.1,-51 -5.7,-3.1 -14.5,-4.8 -20.3,-2.8 -25.9,8.7 -51.4,18.7 -76.8,29 -9.6,3.9 -15.5,2.9 -22.9,-5.2 C 90.4,776.4 54.6,714.1 32.6,643.7 29,632.1 30.3,625.3 40.2,618 c 21.5,-16 42.5,-32.5 62.7,-50.1 5,-4.4 7.9,-13.4 8.1,-20.5 1.1,-33 1.5,-66 1,-99 -0.1,-7.1 -3.1,-16.2 -8.1,-20.7 -20.4,-18.3 -41.7,-35.5 -63.5,-52.2 -8.6,-6.6 -9.8,-12.7 -6.6,-22.6 23,-70.8 59.4,-133.5 110,-188.1 7.2,-7.8 13,-9.5 22.8,-5.3 25.2,10.7 50.6,21 76.4,29.8 6.3,2.2 15.6,0.3 21.8,-3 29.1,-15.6 57.9,-31.8 86.1,-48.9 6.5,-4 13.1,-11.9 14.6,-19.1 5.4,-25.5 9.3,-51.4 12.5,-77.3 1.5,-12.3 7.2,-17.5 18.9,-19.3 21.8,-3.3 43.5,-7.7 65.2,-11.7 z m 38.4,692.9 C 612,703 702.9,612.9 703.3,501.8 703.7,389.2 613.6,297.7 501.8,297.4 389.7,297 298.2,387.7 297.8,499.6 c -0.4,111.9 90.7,203.2 202.7,203.3 z" /></g>
</svg>